<mxfile host="app.diagrams.net" modified="2023-08-19T04:39:47.768Z" agent="Mozilla/5.0 (X11; Linux x86_64) AppleWebKit/537.36 (KHTML, like Gecko) Chrome/115.0.0.0 Safari/537.36" version="21.6.8" etag="At2j8GRgBIxzGman_pft" type="github">
  <diagram name="Page-1" id="lOaIZkFLE2QJjvY1dPGo">
    <mxGraphModel>
      <root>
        <mxCell id="0" />
        <mxCell id="1" parent="0" />
      </root>
    </mxGraphModel>
  </diagram>
</mxfile>
